<svg id="Capa_1" data-name="Capa 1" xmlns="http://www.w3.org/2000/svg" viewBox="0 0 712 462"><path d="M321.77,283.88h-20.6a4.61,4.61,0,0,1-3.13-1.29l-53.72-76.9v75.06c0,1.47-1.66,3.13-3.86,3.13H219.85c-2.21,0-3.86-1.66-3.86-3.13V158.4a3.69,3.69,0,0,1,3.86-3.31h20.79a4.63,4.63,0,0,1,3.13,1.29c18.39,26.49,35.32,50,53.9,76.72V158.4a3.57,3.57,0,0,1,3.86-3.31h20.24a3.57,3.57,0,0,1,3.86,3.31V280.75C325.63,282.22,324.16,283.88,321.77,283.88Z"/><path d="M374.38,269.16l-4.59,12.69v-.18c-.37,1.29-2,2.21-3.87,2.21H344c-3.13,0-4.42-2.21-3.5-4.42l48.76-125.1c1.28-2.76,5.88-2.76,7.17,0l48.75,125.1c.92,2.21-.55,4.42-3.31,4.42H419.64a3.7,3.7,0,0,1-3.49-2.21v.18l-5-12.69Zm29.44-22.26-6.44-19.14A139.61,139.61,0,0,1,393,209.92a132.66,132.66,0,0,1-4.6,17.84l-6.63,19.14Z"/><path d="M491,258.85h10.49c2.21,0,3.86,1.66,3.86,3.13v18.77c0,1.47-1.65,3.13-3.86,3.13h-49.3c-2.21,0-3.87-1.66-3.87-3.13V262c0-1.47,1.66-3.13,3.87-3.13h10.67V180.11h-9.94c-2.21,0-3.86-1.65-3.86-3.12V158.4a3.69,3.69,0,0,1,3.86-3.31h47.83a3.57,3.57,0,0,1,3.87,3.31V177c0,1.47-1.47,3.12-3.87,3.12H491Z"/><path d="M625.14,278.72c2.21,2.4.37,5.16-2.94,5.16H595.33a8,8,0,0,1-3.12-1.29l-34.77-43-1.66,2v-.18c-2,2.2-3.68,4.41-5.89,6.62v32.75c0,1.47-1.65,3.13-3.86,3.13H525.61c-2.39,0-4.05-1.66-4.05-3.13V158.4c0-1.65,1.66-3.31,4.05-3.31H546a3.69,3.69,0,0,1,3.86,3.31v51.15c14.35-17.85,28.89-35.51,43.24-53.17a8,8,0,0,1,3.12-1.29h25.58c3.31,0,5.15,2.76,2.94,5.15l-48.94,60.35Z"/></svg>