<svg id="Capa_1" data-name="Capa 1" xmlns="http://www.w3.org/2000/svg" viewBox="0 0 1000 462"><defs><style>.cls-1{fill:none;stroke:#000;stroke-miterlimit:10;stroke-width:6px;}</style></defs><path d="M609.77,283.87h-20.6a4.59,4.59,0,0,1-3.13-1.28l-53.72-76.9v75.06c0,1.47-1.66,3.12-3.86,3.12H507.85c-2.21,0-3.86-1.65-3.86-3.12V158.4a3.69,3.69,0,0,1,3.86-3.31h20.79a4.63,4.63,0,0,1,3.13,1.29c18.39,26.49,35.32,50,53.9,76.72V158.4a3.57,3.57,0,0,1,3.86-3.31h20.24a3.57,3.57,0,0,1,3.86,3.31V280.75C613.63,282.22,612.16,283.87,609.77,283.87Z"/><path d="M662.38,269.16l-4.59,12.69v-.18c-.37,1.29-2,2.2-3.87,2.2H632c-3.13,0-4.42-2.2-3.5-4.41l48.76-125.1c1.28-2.76,5.88-2.76,7.17,0l48.75,125.1c.92,2.21-.55,4.41-3.31,4.41H707.64a3.69,3.69,0,0,1-3.49-2.2v.18l-5-12.69Zm29.44-22.26-6.44-19.14A139.61,139.61,0,0,1,681,209.92a132.66,132.66,0,0,1-4.6,17.84l-6.63,19.14Z"/><path d="M779,258.85h10.49c2.21,0,3.86,1.66,3.86,3.13v18.77c0,1.47-1.65,3.12-3.86,3.12h-49.3c-2.21,0-3.87-1.65-3.87-3.12V262c0-1.47,1.66-3.13,3.87-3.13h10.67V180.11h-9.94c-2.21,0-3.86-1.65-3.86-3.12V158.4a3.69,3.69,0,0,1,3.86-3.31h47.83a3.57,3.57,0,0,1,3.87,3.31V177c0,1.47-1.47,3.12-3.87,3.12H779Z"/><path d="M913.14,278.72c2.21,2.4.37,5.15-2.94,5.15H883.33a8,8,0,0,1-3.12-1.28l-34.77-43-1.66,2v-.18c-2,2.2-3.68,4.41-5.89,6.62v32.75c0,1.47-1.65,3.12-3.86,3.12H813.61c-2.39,0-4.05-1.65-4.05-3.12V158.4c0-1.65,1.66-3.31,4.05-3.31H834a3.69,3.69,0,0,1,3.86,3.31v51.15c14.35-17.85,28.89-35.51,43.24-53.17a8,8,0,0,1,3.12-1.29h25.58c3.31,0,5.15,2.76,2.94,5.15l-48.94,60.35Z"/><path d="M242.49,187.54l-48.74-31,.35,150.51,28.6-.07c-.48-.64-.21-91.38-.21-91.38l20.13,28.68Z"/><path d="M262.58,253.4l48.74,31L311,133.86l-28.6.07c.49.64.21,91.38.21,91.38l-20.13-28.68Z"/><rect class="cls-1" x="127.2" y="95.14" width="250.67" height="250.67"/></svg>